<svg width="190" height="64" viewBox="0 0 190 64" fill="none" xmlns="http://www.w3.org/2000/svg">
<path d="M8.99234 12.0089L9.09859 14.128C12.2382 11.3726 16.2286 8.98828 20.5916 8.98828C26.4443 8.98828 30.7541 14.4455 30.7541 20.0092C30.7541 28.2218 22.2938 35.3749 15.2701 38.3426C13.4077 39.1376 11.4391 39.7732 9.41736 40.1972C9.52362 43.694 9.62988 47.1386 9.68373 50.5825H0.638255C0.531998 42.3163 0.0531277 34.1037 0.0531277 25.8382C0.0531277 21.3876 0.106257 16.8835 0 12.38L8.99234 12.0089ZM9.15172 30.9779C11.1203 30.3952 12.9827 29.5473 14.7388 28.4349C17.1332 26.9513 21.7094 23.1893 21.7094 20.1157C21.7094 18.6833 20.8086 17.5684 19.422 18.2619C14.5801 19.9041 11.3874 24.4612 9.15244 28.8059L9.15172 30.9779Z" fill="#facc15"/>
<path d="M79.2647 17.6198C70.6248 17.6198 63.5602 23.8935 63.5602 32.6759C63.5602 41.4583 67.8801 49.6588 77.51 49.6588C87.1399 49.6588 91.1446 41.5928 91.1446 33.2136C91.1446 26.0891 87.59 17.6198 79.2647 17.6198ZM71.2107 32.766C71.2107 28.1954 74.7208 25.2376 79.1756 25.2376C82.6857 25.2376 83.4956 30.5697 83.4956 33.2136C83.4956 44.6581 71.2107 44.7108 71.2107 32.766Z" fill="#000"/>
<path d="M119.9 11.161C124.263 11.3726 128.573 11.7437 132.936 11.956C135.33 12.0618 137.778 12.38 140.172 12.4329L138.895 21.3876C136.873 21.3347 134.904 21.1224 132.882 20.9636C125.167 20.3281 117.931 19.957 110.481 19.6388C110.375 22.3942 110.162 25.1497 110.162 27.9051C110.162 33.6804 111.279 42.1583 112.29 47.9336L103.404 49.5229C102.126 42.3699 101.116 35.1639 101.116 27.9044C101.116 25.149 101.328 22.3406 101.435 19.5852L92.4958 19.5323V10.5247C101.637 10.5247 110.769 10.738 119.9 11.161ZM137.033 23.9836L137.459 32.9912C133.308 33.097 129.158 33.6268 125.008 33.892V43.3236C129.744 43.112 134.426 43.3236 139.162 43.3765V52.3842C135.384 52.3842 131.606 52.2784 127.881 52.2784C124.157 52.2784 120.645 52.6494 117.027 52.6494L115.91 52.5965L116.122 48.0394H116.016L115.963 33.2036C115.963 30.554 115.963 27.8522 116.282 25.2026C123.198 24.7303 130.112 24.3524 137.033 23.9836Z" fill="#facc15"/>
<path d="M144.224 15.0846H153.388L153.55 24.0923C153.627 33.4732 153.714 42.8479 153.603 52.2283C152.897 52.2426 153.603 52.2283 151.155 52.2283C147.697 52.2283 148.376 52.3163 144.856 52.0946C144.647 42.7611 144.557 33.4285 144.557 24.0923L144.224 15.0846Z" fill="#facc15"/>
<path d="M178.72 33.5339C178.826 26.8048 179.358 20.1286 179.571 13.4524L188.617 13.8235C188.404 20.9765 187.765 28.1296 187.765 35.2826C187.765 40.4224 188.563 45.5092 190 50.4895L181.22 52.821C180.794 51.1251 180.369 49.4829 179.996 47.7871C176.271 44.025 172.493 40.263 169.035 36.1298C169.301 42.5415 168.716 48.9524 167.385 55.2046L158.552 53.2442C159.51 48.7937 160.095 44.1837 160.095 39.6266C160.095 35.0696 159.616 30.4603 159.35 25.9032C159.137 22.8297 159.137 19.7568 158.712 16.6833L167.704 15.5179C169.726 23.343 173.71 27.9842 178.72 33.5339Z" fill="#facc15"/>
<path d="M95.5378 44.7264C94.2512 46.4008 91.8181 50.5796 88.1177 52.5307C81.3331 56.1083 74.9878 56.5809 68.1637 53.2257C63.8345 51.0973 60.2088 47.7985 57.0168 44.2402C56.8725 44.0793 56.7289 43.9185 56.586 43.7576C54.9549 41.9209 53.1822 40.2301 51.5166 38.4255C50.8396 37.692 50.1618 36.9585 49.4848 36.2249C55.7101 33.3108 61.723 27.4289 61.723 20.1172C61.723 14.6063 57.36 9.83765 51.7198 9.83765C47.5162 9.83765 43.5258 12.1691 40.9713 15.4014L40.9182 12.6989H31.8727C31.979 17.7328 32.0321 22.8189 32.0321 27.8529L41.0244 27.376C43.0462 23.8792 47.3029 18.8453 51.719 18.8453C52.4104 18.8453 52.6768 19.6932 52.6768 20.223C52.6768 27.5884 40.0129 32.2505 33.8938 32.2505C33.2555 32.2505 32.6697 32.2505 32.0314 32.0918C32.0314 38.1324 31.4994 44.1194 30.9674 50.1071L40.0129 50.9021C40.2792 47.6169 40.6511 44.3317 40.8643 41.0465C40.8643 41.2474 41.8221 41.9181 41.9915 42.0725C42.4352 42.4764 42.8796 42.8811 43.3233 43.285C44.177 44.0622 45.0306 44.84 45.8843 45.6172C47.481 47.0714 49.1718 48.467 50.706 49.9727C53.613 52.826 56.5695 55.6636 59.8972 58.0337C62.6297 59.9798 65.5805 61.4476 68.7912 62.4421C72.5274 63.5989 76.4848 64.1815 80.399 63.9499C85.0384 63.6746 90.8811 62.1561 97.4561 55.1882C99.0428 53.5067 101.24 49.2892 101.875 48.1309C99.7629 46.9963 97.6507 45.8617 95.5385 44.7271L95.5378 44.7264Z" fill="#facc15"/>
<path d="M149.748 10.5947C151.269 7.78643 153.998 5.54723 156.876 4.21099C157.176 4.07158 157.876 3.73053 158.165 3.67691C158.233 3.66476 158.228 3.68765 158.181 3.72554C157.702 4.10303 157.098 4.44335 156.592 4.82013C154.619 6.29149 152.664 8.16251 151.273 10.1958C150.802 10.8843 150.359 11.625 150.052 12.4C150.453 12.4951 150.844 12.6238 151.247 12.7146C152.829 13.0706 154.467 13.1686 156.06 12.8139C161.36 11.6314 163.838 5.62729 164.54 0.800681C163.924 0.633383 163.297 0.496124 162.668 0.383162C159.366 -0.210959 155.404 -0.343229 152.564 1.70081C149.393 3.98292 148.638 8.3155 149.09 11.971L149.748 10.5947Z" fill="#facc15"/>
<path d="M84.5897 3.22652C80.063 4.85588 76.5652 8.75234 75.2678 13.3394C75.1666 13.6969 74.878 15.7109 74.7567 15.7266C74.3244 15.7846 73.9037 14.6221 73.5943 14.2153C71.9035 11.9918 69.041 10.1715 66.1499 10.2938C67.2131 12.8561 69.3038 15.0453 71.9523 15.9905C74.6253 16.9442 75.8192 16.3236 78.0958 14.8494C80.7121 13.155 82.9657 10.2316 83.8868 7.2538C84.0484 6.73332 84.7922 3.38809 84.589 3.2258L84.5897 3.22652Z" fill="#facc15"/>
</svg>
